<svg xmlns="http://www.w3.org/2000/svg" viewBox="0 0 48 48">
  <path d="M5.4746094 3.984375 A 1.50015 1.50015 0 0 0 4.4296875 6.5605469L13.869141 16L9.5 16C7.02 16 5 18.02 5 20.5L5 27.5C5 29.98 7.02 32 9.5 32L16.119141 32L25.339844 40.199219C25.869844 40.669219 26.519453 40.910156 27.189453 40.910156C27.579453 40.910156 27.969609 40.830156 28.349609 40.660156C29.369609 40.200156 30 39.219375 30 38.109375L30 32.130859L41.429688 43.560547 A 1.50015 1.50015 0 1 0 43.550781 41.439453L6.5507812 4.4394531 A 1.50015 1.50015 0 0 0 5.4746094 3.984375 z M 27.169922 7.0878906C26.510156 7.0933594 25.864844 7.3382812 25.339844 7.8007812L19.419922 13.070312L30 23.650391L30 9.890625C30 8.780625 29.369609 7.7998437 28.349609 7.3398438C27.967109 7.1673437 27.565781 7.0846094 27.169922 7.0878906 z M 38.640625 12.005859C38.446719 12.021484 38.252812 12.074922 38.070312 12.169922C37.330312 12.549922 37.049687 13.459453 37.429688 14.189453C40.559687 20.169453 40.850547 26.000937 38.310547 31.960938L40.570312 34.220703C43.960313 27.110703 43.799844 19.910547 40.089844 12.810547C39.804844 12.255547 39.222344 11.958984 38.640625 12.005859 z M 34.203125 17.011719C34.0075 17.017344 33.809141 17.062891 33.619141 17.150391C32.869141 17.500391 32.540859 18.380625 32.880859 19.140625C34.120859 21.850625 34.329531 24.489922 33.519531 27.169922L35.859375 29.509766C37.459375 25.649766 37.379375 21.750625 35.609375 17.890625C35.354375 17.328125 34.79 16.994844 34.203125 17.011719 z" fill="#FFFFFF" />
</svg>