<svg xmlns="http://www.w3.org/2000/svg" viewBox="0 0 24 24">
  <path d="M3 2C2.74425 2 2.4884688 2.0974687 2.2929688 2.2929688C1.9019687 2.6839688 1.9019687 3.3160312 2.2929688 3.7070312L6.2929688 7.7070312L5 9L3 9C1.895 9 1 9.895 1 11L1 13C1 14.105 1.895 15 3 15L5 15L9.8046875 19.804688C9.9476875 19.947688 10.122922 20.011719 10.294922 20.011719C10.654922 20.011719 11 19.732547 11 19.310547L11 12.414062L20.292969 21.707031C20.487969 21.902031 20.744 22 21 22C21.256 22 21.512031 21.902031 21.707031 21.707031C22.098031 21.316031 22.098031 20.683969 21.707031 20.292969L11 9.5859375L11 9.5585938L7.7207031 6.2792969L7.7070312 6.2929688L3.7070312 2.2929688C3.5115312 2.0974687 3.25575 2 3 2 z M 18.777344 3.2226562C18.521594 3.2226562 18.265812 3.320125 18.070312 3.515625C17.679312 3.906625 17.679313 4.5386875 18.070312 4.9296875C19.959313 6.8176875 21 9.329 21 12C21 13.373 20.720266 14.702734 20.197266 15.927734L21.699219 17.427734C22.544219 15.765734 23 13.919 23 12C23 8.795 21.751375 5.781625 19.484375 3.515625C19.288875 3.320125 19.033094 3.2226562 18.777344 3.2226562 z M 10.294922 3.9882812C10.122922 3.9882812 9.9476875 4.0533125 9.8046875 4.1953125L9.1347656 4.8652344L11 6.7304688L11 4.6894531C11 4.2674531 10.654922 3.9882812 10.294922 3.9882812 z M 15.949219 6.0488281C15.693469 6.0488281 15.437688 6.14825 15.242188 6.34375C14.851187 6.73475 14.851187 7.3668125 15.242188 7.7578125C16.581187 9.0968125 17.127594 10.914063 16.933594 12.664062L18.636719 14.367188C19.481719 11.623188 18.82425 8.51175 16.65625 6.34375C16.46075 6.14825 16.204969 6.0488281 15.949219 6.0488281 z" fill="#FFFFFF" />
</svg>